# xmcd
#
# Track frame offsets: 
#        150
#        16736
#        26447
#        36975
#        47332
#        62738
#        79026
#        95031
#        114626
#        126407
#        144319
#
# Disc length: 2197 seconds
#
# Revision: 1
# Processed by: cddbd v1.5.2PL0 Copyright (c) Steve Scherf et al.
# Submitted via: ExactAudioCopyFreeDBPlugin 1.0
#
DISCID=8b08930b
DTITLE=Linda Ronstadt - Icon
DYEAR=1900
DGENRE=Country
TTITLE0=You're No Good
TTITLE1=When Will I Be Loved
TTITLE2=Silver Threads And Golden Needles
TTITLE3=The Long Way Around
TTITLE4=It Doesn't Matter Anymore
TTITLE5=Rock Me On The Water
TTITLE6=An American  Dream
TTITLE7=Long Long Time
TTITLE8=Different Drum
TTITLE9=Somewhere Out There
TTITLE10=Tell Him I Said Hello
EXTD=
EXTT0=
EXTT1=
EXTT2=
EXTT3=
EXTT4=
EXTT5=
EXTT6=
EXTT7=
EXTT8=
EXTT9=
EXTT10=
PLAYORDER=
